<svg width="40" height="40" viewBox="0 0 40 40" fill="none" xmlns="http://www.w3.org/2000/svg">
<circle cx="19.8238" cy="19.8233" r="14.3189" fill="#EF4444"/>
<g clip-path="url(#clip0_709_28)">
<path opacity="0.3" d="M26.6665 13.3335C30.0665 16.7335 30.3331 22.0835 27.4498 25.7835L24.0665 22.4001C25.1331 20.5835 24.8831 18.2168 23.3331 16.6668C21.7831 15.1168 19.4165 14.8668 17.6081 15.9418L14.2165 12.5501C17.9165 9.6668 23.2665 9.93346 26.6665 13.3335Z" fill="black"/>
<path d="M28.3333 11.6668C23.7333 7.06683 16.2667 7.06683 11.6667 11.6668C7.06666 16.2668 7.06666 23.7335 11.6667 28.3335C16.2667 32.9335 23.7333 32.9335 28.3333 28.3335C32.9333 23.7335 32.9333 16.2668 28.3333 11.6668ZM26.6667 13.3335C30.0667 16.7335 30.3333 22.0835 27.45 25.7835L24.0667 22.4002C25.1333 20.5835 24.8833 18.2168 23.3333 16.6668C21.7833 15.1168 19.4167 14.8668 17.6083 15.9418L14.2167 12.5502C17.9167 9.66683 23.2667 9.9335 26.6667 13.3335ZM21.6667 21.6668C20.75 22.5835 19.25 22.5835 18.3333 21.6668C17.4167 20.7502 17.4167 19.2502 18.3333 18.3335C19.25 17.4168 20.75 17.4168 21.6667 18.3335C22.5833 19.2502 22.5833 20.7502 21.6667 21.6668ZM13.3333 26.6668C9.93333 23.2668 9.66667 17.9168 12.55 14.2168L15.9333 17.6002C14.8583 19.4085 15.1083 21.7752 16.6583 23.3252C18.2083 24.8752 20.575 25.1252 22.3833 24.0502L25.7667 27.4335C22.0833 30.3335 16.7333 30.0668 13.3333 26.6668Z" fill="black"/>
</g>
<defs>
<clipPath id="clip0_709_28">
<rect width="28.2843" height="28.2843" fill="white" transform="translate(20) rotate(45)"/>
</clipPath>
</defs>
</svg>
